<?xml version="1.0" standalone="no"?>
<!DOCTYPE svg PUBLIC "-//W3C//DTD SVG 20010904//EN"
 "http://www.w3.org/TR/2001/REC-SVG-20010904/DTD/svg10.dtd">
<svg version="1.0" xmlns="http://www.w3.org/2000/svg"
 width="225.000000pt" height="225.000000pt" viewBox="0 0 225.000000 225.000000"
 preserveAspectRatio="xMidYMid meet">

<g transform="translate(0.000000,225.000000) scale(0.100000,-0.100000)"
fill="#000000" stroke="none">
<path d="M340 1125 l0 -785 785 0 785 0 0 785 0 785 -785 0 -785 0 0 -785z
m1246 650 c158 -71 232 -263 162 -417 -31 -66 -105 -151 -125 -144 -8 3 -11 2
-8 -4 8 -12 -33 -38 -73 -46 -22 -5 -32 -12 -32 -25 0 -11 -4 -19 -10 -19 -5
0 -10 -5 -10 -11 0 -5 5 -7 10 -4 16 10 11 -27 -7 -47 -22 -24 -52 -23 -80 4
-22 21 -33 55 -14 43 5 -3 12 -1 16 5 3 5 1 10 -4 10 -6 0 -11 9 -11 20 0 17
-7 20 -41 20 -37 0 -46 6 -105 68 -91 93 -119 154 -119 257 0 67 4 89 28 137
78 158 263 225 423 153z m-1061 -970 c16 0 21 9 26 45 l7 45 -2 -50 c-1 -49
-2 -50 -31 -50 -29 0 -30 1 -31 50 l-2 50 7 -45 c5 -36 10 -45 26 -45z m125
43 c0 17 5 32 10 32 7 0 10 -19 9 -45 -2 -25 -6 -45 -11 -45 -5 0 -17 15 -28
33 l-20 32 0 -32 c0 -18 -4 -33 -10 -33 -11 0 -14 83 -3 94 4 4 17 -10 30 -31
l23 -38 0 33z m115 2 c6 -27 25 -43 25 -21 0 17 20 64 25 59 8 -7 -26 -98 -36
-98 -10 0 -24 31 -35 77 -5 17 -3 24 4 19 6 -3 13 -20 17 -36z m130 30 c3 -5
-3 -10 -14 -10 -12 0 -21 -7 -21 -15 0 -9 6 -12 15 -9 8 4 15 1 15 -5 0 -6 -7
-11 -15 -11 -24 0 -17 -28 8 -33 16 -3 13 -5 -10 -6 -32 -1 -33 0 -33 42 0 24
3 47 7 50 10 10 41 8 48 -3z m80 -6 c10 -11 13 -20 6 -28 -6 -7 -6 -17 -1 -26
12 -19 12 -30 1 -30 -5 0 -11 9 -14 20 -3 11 -10 20 -16 20 -6 0 -11 -9 -11
-20 0 -11 -4 -20 -10 -20 -11 0 -14 83 -3 93 11 12 31 8 48 -9z m90 6 c3 -5
-3 -10 -14 -10 -27 0 -27 -14 1 -32 29 -20 18 -48 -19 -47 -15 0 -21 3 -13 6
8 2 22 7 30 9 10 4 6 11 -15 28 -25 20 -28 26 -16 40 15 18 37 21 46 6z m42
-67 c-2 -16 -4 -3 -4 27 0 30 2 43 4 28 2 -16 2 -40 0 -55z m98 67 c3 -5 -1
-10 -9 -10 -12 0 -16 -10 -16 -40 0 -22 -4 -40 -10 -40 -5 0 -10 18 -10 40 0
22 -4 40 -10 40 -5 0 -10 5 -10 10 0 6 13 10 29 10 17 0 33 -4 36 -10z m68 -8
c16 20 18 20 11 3 -4 -11 -12 -34 -18 -51 l-10 -32 -12 32 c-26 72 -26 73 -8
48 l18 -24 19 24z m151 2 c20 -19 21 -58 2 -74 -43 -35 -99 28 -61 70 22 24
38 25 59 4z m96 6 c0 -5 -9 -10 -21 -10 -12 0 -19 -5 -16 -12 2 -7 9 -13 15
-13 5 0 14 -3 18 -7 4 -5 -2 -8 -14 -8 -13 0 -22 -8 -25 -22 -2 -13 -5 1 -6
30 -1 49 0 52 24 52 14 0 25 -4 25 -10z m-800 -45 c0 -25 -4 -45 -10 -45 -5 0
-10 20 -10 45 0 25 5 45 10 45 6 0 10 -20 10 -45z m-107 -134 c72 -28 92 -118
38 -172 -43 -43 -101 -41 -147 5 -38 38 -43 70 -19 116 25 49 78 70 128 51z
m640 0 c72 -28 92 -118 38 -172 -81 -81 -219 18 -167 120 26 50 78 71 129 52z
m-480 -9 c-9 -6 -8 -15 6 -36 10 -15 22 -28 26 -28 4 0 16 13 26 28 14 21 15
30 6 36 -7 4 6 7 28 7 22 -1 33 -3 25 -6 -18 -5 -70 -71 -70 -89 0 -7 20 -33
45 -58 l44 -46 -47 0 c-30 0 -42 3 -33 9 11 7 9 16 -11 45 l-25 37 -26 -34
c-19 -26 -23 -37 -14 -46 8 -8 1 -11 -28 -11 l-40 0 31 25 c17 13 39 36 48 50
16 25 16 27 -15 70 -17 24 -39 46 -48 48 -9 3 7 5 34 6 28 0 45 -3 38 -7z
m317 -18 c0 -14 -4 -23 -10 -19 -5 3 -10 13 -10 21 0 10 -12 14 -40 14 l-40 0
0 -40 c0 -37 2 -40 26 -40 15 0 33 8 40 18 12 15 13 12 13 -23 0 -36 -1 -38
-14 -22 -8 11 -23 17 -37 15 -18 -2 -24 -10 -26 -39 -2 -29 1 -38 20 -47 20
-9 16 -11 -32 -11 -42 0 -51 2 -37 10 14 8 17 25 17 94 0 57 -4 85 -12 88 -7
3 22 6 65 6 76 1 77 1 77 -25z m405 6 c22 -24 14 -63 -15 -76 -20 -9 -19 -12
24 -57 43 -44 44 -47 21 -47 -17 0 -34 13 -57 45 -18 24 -39 44 -45 45 -20 0
-16 -67 5 -79 13 -8 4 -10 -38 -10 -42 0 -51 2 -37 10 14 8 17 25 17 94 0 57
-4 85 -12 88 -7 3 17 6 53 6 53 1 69 -3 84 -19z m236 10 c22 -12 49 -61 49
-89 0 -34 -23 -72 -51 -87 -17 -8 -56 -14 -96 -14 -59 1 -66 2 -50 14 14 11
17 29 17 94 0 68 -3 81 -17 85 -10 3 15 5 55 6 40 0 82 -4 93 -9z"/>
<path d="M1342 1774 c-61 -23 -145 -103 -173 -166 -35 -82 -33 -176 8 -259 31
-63 77 -118 88 -107 4 3 7 15 8 27 1 11 9 24 19 27 17 5 16 8 -8 37 -39 46
-54 89 -54 149 1 127 103 228 230 228 41 0 115 -32 149 -63 33 -30 71 -115 71
-157 0 -87 -52 -170 -131 -211 -73 -37 -58 -63 31 -55 50 5 59 10 102 56 61
65 82 128 76 224 -8 113 -61 197 -160 251 -43 24 -67 29 -133 32 -54 2 -94 -2
-123 -13z m58 -30 l0 -37 -20 26 c-24 30 -26 45 -5 27 12 -10 15 -10 15 4 0 9
2 16 5 16 3 0 5 -16 5 -36z m154 10 c11 -30 -33 -60 -49 -34 -11 17 5 50 25
50 10 0 21 -7 24 -16z m-217 -6 c-2 -7 0 -21 5 -30 12 -24 3 -23 -22 2 -18 18
-18 20 -2 29 22 14 25 13 19 -1z m123 2 c0 -5 -2 -10 -4 -10 -3 0 -8 5 -11 10
-3 6 -1 10 4 10 6 0 11 -4 11 -10z m155 -20 c4 -6 -1 -7 -11 -3 -10 4 -15 2
-11 -3 3 -6 -3 -15 -13 -22 -18 -11 -19 -10 -8 13 11 26 32 33 43 15z m-305
-52 c0 -14 -19 1 -31 25 -12 22 -12 22 10 3 11 -11 21 -23 21 -28z m-65 2 c-3
-5 3 -10 14 -10 23 0 29 -24 9 -36 -8 -5 -9 -2 -5 10 5 12 2 16 -10 14 -10 -2
-19 5 -21 15 -2 9 2 17 8 17 6 0 8 -4 5 -10z m462 -64 c-4 -9 -16 -16 -27 -16
-29 0 -38 30 -15 47 16 11 21 11 33 -1 8 -8 12 -22 9 -30z m-472 7 c19 -15 19
-15 -10 -9 -27 5 -28 5 -7 -6 30 -15 28 -30 -3 -16 -24 11 -32 28 -18 41 9 10
16 8 38 -10z m490 -43 c-3 -5 -1 -10 4 -10 6 0 11 -4 11 -10 0 -5 -6 -7 -14
-4 -8 3 -17 1 -21 -5 -3 -6 -11 -11 -16 -11 -6 0 -7 5 -3 11 3 6 0 16 -7 21
-10 7 -8 8 8 5 13 -3 26 -1 29 4 3 5 7 9 10 9 3 0 2 -4 -1 -10z m-534 -19 c7
12 9 12 9 0 0 -11 3 -11 15 -1 16 13 20 3 7 -18 -14 -21 -64 2 -55 25 7 17 8
17 11 -1 3 -15 6 -16 13 -5z m9 -56 c19 -10 21 -15 10 -18 -8 -3 -23 -8 -32
-11 -10 -3 -18 -1 -18 4 0 6 8 10 17 10 15 0 14 2 -3 15 -24 18 -7 19 26 0z
m550 -2 c0 -15 -2 -16 -10 -3 -9 13 -10 13 -10 0 0 -10 -3 -11 -8 -4 -4 6 -14
14 -22 17 -8 3 0 6 18 6 24 1 32 -3 32 -16z m-10 -49 c11 -12 11 -18 -2 -30
-18 -18 -48 -8 -48 15 0 33 28 42 50 15z m-520 -8 c0 -2 -13 -6 -30 -8 -16 -3
-30 -1 -30 4 0 4 14 8 30 8 17 0 30 -2 30 -4z m-2 -38 c-5 -13 -48 -19 -48 -7
0 7 19 14 43 18 5 0 7 -4 5 -11z m498 -22 c24 -18 8 -38 -24 -30 -22 6 -31 24
-11 24 5 0 7 5 4 10 -9 15 8 12 31 -4z m-491 -5 c-6 -11 -45 -21 -45 -12 0 12
8 17 30 18 11 1 18 -2 15 -6z m33 -44 c2 -8 -7 -21 -20 -28 -22 -12 -23 -11
-5 8 23 26 22 36 -2 23 -29 -15 -39 -12 -16 5 23 18 39 15 43 -8z m436 -23
c-1 -4 -9 -13 -17 -18 -25 -16 -55 17 -37 39 11 13 16 14 34 2 12 -8 20 -18
20 -23z"/>
<path d="M1515 1750 c-7 -12 2 -30 16 -30 5 0 9 9 9 20 0 21 -15 27 -25 10z"/>
<path d="M1665 1629 c-4 -6 -4 -13 -1 -16 8 -8 36 5 36 17 0 13 -27 13 -35 -1z"/>
<path d="M1706 1453 c-12 -12 -5 -23 14 -23 11 0 20 4 20 9 0 11 -26 22 -34
14z"/>
<path d="M1700 1369 c0 -5 5 -7 10 -4 6 3 10 8 10 11 0 2 -4 4 -10 4 -5 0 -10
-5 -10 -11z"/>
<path d="M1650 1328 c0 -18 18 -34 28 -24 3 4 -2 14 -11 23 -16 16 -17 16 -17
1z"/>
<path d="M1402 1690 c-150 -35 -212 -229 -110 -345 21 -25 38 -35 59 -35 16 0
38 -9 49 -20 28 -28 85 -26 149 6 169 85 147 335 -34 390 -53 15 -64 16 -113
4z m-2 -66 c0 -19 10 -18 26 4 15 19 19 5 5 -16 -5 -9 -24 -12 -52 -10 -35 2
-44 7 -47 23 -3 19 -2 19 11 3 18 -23 23 -23 30 3 6 23 27 17 27 -7z m140 0
c0 -14 2 -13 16 0 20 21 23 20 17 -4 -5 -18 -12 -21 -52 -18 -37 2 -46 7 -49
23 -3 19 -2 19 11 3 8 -10 18 -18 22 -18 5 0 5 3 2 7 -9 9 13 34 24 27 5 -3 9
-12 9 -20z m-132 -41 c-10 -2 -28 -2 -40 0 -13 2 -5 4 17 4 22 1 32 -1 23 -4z
m135 0 c-13 -2 -33 -2 -45 0 -13 2 -3 4 22 4 25 0 35 -2 23 -4z m-105 -35 c7
-7 12 -39 12 -72 l0 -61 -50 3 -50 4 0 69 0 69 38 0 c21 0 43 -5 50 -12z m122
-57 l0 -69 -50 -4 -50 -3 0 67 c0 73 3 76 63 77 l37 1 0 -69z m-229 47 c1 -7
2 -38 3 -68 l1 -55 45 -3 c24 -2 51 -8 58 -14 9 -8 16 -8 24 0 7 7 33 12 60
12 l47 0 4 73 3 72 2 -82 2 -83 -57 -2 c-32 -1 -67 -1 -78 -1 -102 4 -145 9
-145 15 0 5 6 8 13 9 8 0 8 2 -2 6 -11 5 -11 7 0 14 10 6 11 9 2 9 -7 0 -13 9
-13 20 0 11 6 20 13 21 8 0 8 2 -2 6 -11 5 -11 7 0 14 10 6 11 9 2 9 -7 0 -13
9 -13 20 0 21 29 28 31 8z m139 -194 c0 -19 10 -18 26 4 15 19 19 5 5 -16 -5
-9 -24 -12 -52 -10 -35 2 -44 7 -47 23 -3 19 -2 19 11 3 8 -10 18 -18 22 -18
5 0 5 3 2 7 -9 9 13 34 24 27 5 -3 9 -12 9 -20z m3 -41 c-13 -2 -33 -2 -45 0
-13 2 -3 4 22 4 25 0 35 -2 23 -4z"/>
<path d="M1301 1287 c-8 -11 -3 -17 25 -30 19 -10 32 -22 29 -27 -4 -6 -16 -3
-31 6 -26 18 -30 13 -14 -17 27 -50 178 -71 255 -34 l40 18 -61 7 c-36 4 -89
20 -129 39 -42 19 -76 29 -88 25 -14 -4 -17 -3 -12 6 5 8 20 10 44 6 25 -4 31
-2 21 4 -22 14 -66 12 -79 -3z m209 -91 c0 -3 -4 -8 -10 -11 -5 -3 -10 -1 -10
4 0 6 5 11 10 11 6 0 10 -2 10 -4z"/>
<path d="M1281 1238 c-1 -26 38 -68 63 -68 6 1 -1 7 -16 16 -16 8 -31 28 -37
47 -9 31 -9 31 -10 5z"/>
<path d="M1444 1251 c10 -16 46 -20 46 -5 0 8 -10 14 -26 14 -14 0 -23 -4 -20
-9z"/>
<path d="M1410 1141 c0 -5 6 -11 13 -14 9 -3 9 -9 -2 -27 -12 -21 -11 -25 5
-37 23 -17 34 -16 55 3 16 15 17 18 3 32 -11 10 -12 18 -5 25 20 20 12 27 -29
27 -22 0 -40 -4 -40 -9z"/>
<path d="M940 854 c0 -9 5 -14 12 -12 18 6 21 28 4 28 -9 0 -16 -7 -16 -16z"/>
<path d="M1374 856 c-9 -24 0 -51 18 -54 20 -4 40 30 32 52 -8 20 -43 21 -50
2z"/>
<path d="M526 668 c-25 -36 -21 -104 9 -133 13 -14 31 -25 40 -25 67 0 98 107
48 162 -23 26 -78 24 -97 -4z"/>
<path d="M1171 676 c-16 -19 -25 -79 -17 -110 8 -34 49 -60 81 -52 52 13 71
118 29 161 -19 19 -78 20 -93 1z"/>
<path d="M1410 645 c0 -37 3 -45 18 -45 10 0 23 5 30 12 17 17 15 65 -4 72
-36 14 -44 7 -44 -39z"/>
<path d="M1630 599 l0 -92 38 6 c49 8 72 38 72 93 0 55 -26 84 -75 84 l-35 0
0 -91z"/>
</g>
</svg>
